<svg width="21" height="17" viewBox="0 0 21 17" fill="none" xmlns="http://www.w3.org/2000/svg">
<path fill-rule="evenodd" clip-rule="evenodd" d="M20.851 2.04608C20.1058 2.37712 19.3051 2.59892 18.4653 2.69826C19.3223 2.18654 19.9807 1.3759 20.2907 0.408296C19.4882 0.882495 18.5987 1.22794 17.6531 1.41342C16.8943 0.60848 15.8141 0.105469 14.6204 0.105469C12.3253 0.105469 10.4637 1.95965 10.4637 4.24571C10.4637 4.56984 10.5007 4.88558 10.5721 5.1896C7.11854 5.01643 4.05624 3.36784 2.00728 0.863287C1.65032 1.47464 1.44398 2.18594 1.44398 2.94556C1.44398 4.38107 2.17808 5.6482 3.29383 6.39131C2.61215 6.3703 1.97083 6.18302 1.41054 5.87299V5.92521C1.41054 7.93066 2.84319 9.60386 4.74425 9.98562C4.39483 10.0799 4.02853 10.1309 3.64958 10.1309C3.38149 10.1309 3.12093 10.1045 2.86699 10.0552C3.39565 11.7002 4.93131 12.8974 6.74924 12.9314C5.32653 14.0406 3.53602 14.703 1.58827 14.703C1.2533 14.703 0.92195 14.6832 0.596924 14.6463C2.43653 15.8204 4.62105 16.5053 6.96672 16.5053C14.6098 16.5053 18.7897 10.1972 18.7897 4.72621C18.7897 4.54673 18.7861 4.36726 18.7782 4.19079C19.5894 3.60734 20.2937 2.87773 20.851 2.04608Z" fill="white"/>
</svg>
