<?xml version="1.0" encoding="utf-8"?>
<!-- Generator: Adobe Illustrator 24.0.0, SVG Export Plug-In . SVG Version: 6.00 Build 0)  -->
<svg version="1.1" id="Calque_1" xmlns="http://www.w3.org/2000/svg" xmlns:xlink="http://www.w3.org/1999/xlink" x="0px" y="0px"
	 viewBox="0 0 18 18" style="enable-background:new 0 0 18 18;" xml:space="preserve">
<style type="text/css">
	.st0{fill-rule:evenodd;clip-rule:evenodd;fill:#FFFFFF;}
</style>
<path class="st0" d="M16.6,0H1.4C0.6,0,0,0.6,0,1.4v15.4C0,17.4,0.6,18,1.4,18h15.3c0.8,0,1.4-0.6,1.4-1.4V1.4C18,0.6,17.4,0,16.6,0
	z M5.9,16H3V7h3C5.9,7,5.9,16,5.9,16z M3.5,5C2.6,5,2,4.2,2,3.5C2,2.6,2.6,2,3.5,2S5,2.6,5,3.5C4.9,4.2,4.2,5,3.5,5z M15,15.9h-2.6
	v-4.2c0-1,0-2.3-1.3-2.3s-1.5,1.1-1.5,2.3V16H7V7.2h2.5v1.1C9.8,7.7,10.7,7,11.9,7c2.6,0,3,1.8,3,4.1v4.8H15z"/>
</svg>
