<svg width="18" height="18" viewBox="0 0 18 18" fill="none" xmlns="http://www.w3.org/2000/svg">
<path fill-rule="evenodd" clip-rule="evenodd" d="M11.3513 6.79859C11.232 6.64792 11.1713 6.41904 11.1713 6.1131V1.8253H12.195V5.75885C12.195 5.87962 12.2186 5.96703 12.2614 6.02109C12.3041 6.07629 12.3739 6.1039 12.4695 6.1039C12.5449 6.1039 12.6405 6.06709 12.7575 5.99578C12.8711 5.92217 12.9757 5.83131 13.0714 5.72089V1.8253H14.0985V6.95617H13.0714V6.38799C12.8846 6.59617 12.6866 6.75719 12.4819 6.86645C12.2771 6.97342 12.0791 7.03093 11.8879 7.03093C11.6494 7.03093 11.4728 6.95272 11.3513 6.79859ZM8.4195 2.95936C8.4195 2.84665 8.46 2.75693 8.53538 2.68677C8.61413 2.61776 8.71763 2.58441 8.84138 2.58441C8.9775 2.58441 9.08775 2.61776 9.17212 2.68677C9.25425 2.75693 9.29588 2.84665 9.29588 2.95936V5.75425C9.29588 5.89112 9.25425 6.00038 9.17212 6.07859C9.09 6.15681 8.98088 6.19706 8.84138 6.19706C8.70525 6.19706 8.60175 6.15911 8.52975 6.07974C8.45662 6.00383 8.4195 5.89572 8.4195 5.75425V2.95936ZM8.84363 7.08498C9.3105 7.08498 9.67613 6.96077 9.94275 6.71118C10.2071 6.4593 10.3399 6.11655 10.3399 5.67719V3.02722C10.3399 2.63732 10.2037 2.31527 9.936 2.06799C9.66375 1.81955 9.315 1.69534 8.89087 1.69534C8.42625 1.69534 8.05275 1.81265 7.77713 2.04843C7.50262 2.28307 7.36425 2.59936 7.36425 2.99732V5.65764C7.36425 6.09355 7.49925 6.43974 7.767 6.69738C8.03813 6.95617 8.39587 7.08498 8.84363 7.08498ZM4.78463 4.19923L3.40875 0H4.572L5.32125 2.78109H5.39325L6.10875 0H7.281L5.93775 4.07042V6.95617H4.78463V4.19923ZM10.9575 12.2193C11.0239 12.2998 11.0531 12.4194 11.0531 12.577V14.982C11.0531 15.1315 11.0284 15.2373 10.9766 15.304C10.9226 15.3696 10.8416 15.4029 10.7291 15.4029C10.6537 15.4029 10.5795 15.3857 10.5097 15.3523C10.4389 15.3201 10.3669 15.2615 10.2937 15.1879V12.286C10.3556 12.2216 10.4186 12.1733 10.4816 12.1422C10.5457 12.1123 10.611 12.0974 10.674 12.0974C10.7966 12.0974 10.8923 12.1388 10.9575 12.2193ZM14.1176 12.2423C14.1806 12.3251 14.2144 12.4654 14.2144 12.661V13.1314H13.4089V12.661C13.4089 12.4654 13.4381 12.3251 13.5034 12.2423C13.5664 12.156 13.6699 12.1135 13.8139 12.1135C13.9534 12.1135 14.0558 12.156 14.1176 12.2423ZM15.1504 13.856H13.4089V14.7324C13.4089 14.9774 13.437 15.1488 13.4977 15.2442C13.5585 15.3385 13.6609 15.3857 13.806 15.3857C13.9579 15.3857 14.0625 15.3454 14.1232 15.2638C14.1829 15.1833 14.2144 15.0073 14.2144 14.7324V14.5208H15.1504V14.76C15.1504 15.2373 15.0367 15.5973 14.8061 15.84C14.5811 16.0792 14.2391 16.2 13.7846 16.2C13.3774 16.2 13.0556 16.0723 12.8216 15.8158C12.5899 15.5617 12.4695 15.2086 12.4695 14.76V12.6679C12.4695 12.2653 12.5977 11.9341 12.8565 11.6799C13.1141 11.4257 13.446 11.2992 13.8532 11.2992C14.2717 11.2992 14.5912 11.4176 14.8151 11.6523C15.0379 11.8881 15.1504 12.2262 15.1504 12.6679V13.856ZM11.9914 15.1119C11.9914 15.4397 11.9216 15.6916 11.7787 15.8699C11.637 16.0459 11.4277 16.1321 11.1589 16.1321C10.9811 16.1321 10.8214 16.0999 10.683 16.0309C10.5446 15.9642 10.4119 15.8596 10.2937 15.7158V16.0723H9.3735V9.75911H10.2937V11.7926C10.4175 11.6523 10.5469 11.543 10.683 11.4694C10.8225 11.3946 10.962 11.359 11.1038 11.359C11.394 11.359 11.6134 11.4567 11.7641 11.6557C11.9183 11.8547 11.9914 12.1445 11.9914 12.5252V15.1119ZM8.6895 16.0723H7.77713V15.5617C7.61063 15.7503 7.43513 15.8941 7.25175 15.9918C7.07175 16.093 6.894 16.1413 6.72525 16.1413C6.5115 16.1413 6.35512 16.0723 6.24713 15.932C6.14138 15.7928 6.08738 15.5881 6.08738 15.3086V11.4153H6.99863V14.9877C6.99863 15.0981 7.01775 15.1775 7.05488 15.2258C7.09538 15.2776 7.15613 15.3006 7.24163 15.3006C7.30688 15.3006 7.39237 15.2684 7.49475 15.204C7.59825 15.1373 7.69163 15.0544 7.77713 14.9532V11.4153H8.6895V16.0723ZM5.68913 10.6769H4.62488V16.0723H3.59888V10.6769H2.53912V9.75911H5.68913V10.6769ZM14.7128 8.57329H3.28725C1.4715 8.57329 0 10.08 0 11.9364V14.6381C0 16.4944 1.4715 18 3.28725 18H14.7128C16.5274 18 18 16.4944 18 14.6381V11.9364C18 10.08 16.5274 8.57329 14.7128 8.57329Z" fill="white"/>
</svg>
