<svg width="20" height="19" viewBox="0 0 20 19" fill="none" xmlns="http://www.w3.org/2000/svg">
<path fill-rule="evenodd" clip-rule="evenodd" d="M17.1835 8.29085V14.4822C17.1835 14.9391 17.1844 15.3958 17.1835 15.8537C17.1822 16.1917 16.9427 16.4688 16.5893 16.5368C16.5208 16.5505 16.4483 16.5526 16.3792 16.5526C14.2371 16.5547 12.096 16.5538 9.95541 16.5538C7.66263 16.5538 5.36984 16.5538 3.07736 16.5547C2.97818 16.5547 2.88022 16.5475 2.7856 16.5195C2.49688 16.4333 2.2952 16.1967 2.27063 15.9154C2.26669 15.8779 2.26639 15.84 2.26639 15.8033V8.28876V8.19719H3.94898C3.56745 9.64359 3.75185 11.0223 4.52642 12.3216C5.07869 13.2466 5.86115 13.9622 6.85408 14.4732C7.8364 14.9791 8.89485 15.2136 10.0142 15.1527C11.8861 15.0501 13.3882 14.2853 14.5282 12.897C15.6176 11.4709 15.9355 9.9046 15.5054 8.19928H17.1835V8.29085ZM9.72522 6.10319C11.7851 6.10319 13.4546 7.66325 13.4546 9.58781C13.4546 11.5124 11.7872 13.0698 9.72462 13.0686C7.66202 13.0686 6.00096 11.5151 5.99702 9.58662C5.99247 7.69517 7.63442 6.10618 9.72522 6.10319ZM13.4546 3.32701C13.4556 2.92432 13.7828 2.62066 14.2147 2.62036C14.9522 2.61976 15.6883 2.61976 16.4268 2.62036C16.8089 2.62066 17.1095 2.8575 17.1747 3.20829C17.1819 3.24587 17.1835 3.28286 17.1835 3.32074C17.1835 4.01546 17.1844 4.70779 17.1835 5.40072C17.1822 5.75121 16.9323 6.03071 16.5639 6.09335C16.5175 6.1017 16.4686 6.1017 16.421 6.1017C16.0519 6.10319 15.6837 6.1026 15.315 6.1026C14.9468 6.1026 14.578 6.09931 14.2086 6.10409C13.8786 6.10916 13.5202 5.88484 13.4604 5.49796C13.4556 5.46515 13.4546 5.43234 13.4546 5.39953C13.4546 4.70928 13.454 4.01755 13.4546 3.32701ZM15.6379 0.830322H3.8125C1.96129 0.830322 0.446716 2.28091 0.446716 4.05334V15.3779C0.446716 17.1507 1.96129 18.6009 3.8125 18.6009H15.6379C17.4895 18.6009 19.0037 17.1507 19.0037 15.3779V4.05334C19.0037 2.28091 17.4895 0.830322 15.6379 0.830322Z" fill="white"/>
</svg>
