<?xml version="1.0" encoding="UTF-8"?>
<svg width="306px" height="76px" viewBox="0 0 306 76" version="1.1" xmlns="http://www.w3.org/2000/svg" xmlns:xlink="http://www.w3.org/1999/xlink">
    <title>85136C9E-0C15-488E-A80E-CA5648DD0749</title>
    <g id="UI-Kit" stroke="none" stroke-width="1" fill="none" fill-rule="evenodd">
        <g transform="translate(-167.000000, -176.000000)" id="logo/top-copy">
            <g transform="translate(167.000000, 176.000000)">
                <g id="axway-logo-dark-gray" transform="translate(0.000000, 0.000000)">
                    <path d="M123.305878,75.4716787 L129.648804,60.9210265 L118.219183,36.4823657 L126.367709,36.4823657 L133.530909,52.8508439 L140.147313,36.4823657 L147.913935,36.4823657 L131.015874,75.4716787 L123.305878,75.4716787 Z M111.659726,53.1349396 L111.659726,51.8856265 L105.590278,52.8508439 C103.730465,53.1349396 102.25497,54.2127657 102.25497,56.3738874 C102.25497,58.0228004 103.402774,59.6154091 105.752757,59.6154091 C108.817161,59.6154091 111.659726,58.0816787 111.659726,53.1349396 Z M103.02103,48.362583 L109.637435,47.3383265 C111.166983,47.1103744 111.659726,46.31407 111.659726,45.3488526 C111.659726,43.3595396 110.18423,41.7106265 107.1224,41.7106265 C103.94973,41.7106265 102.198183,43.8125483 101.978917,46.2577657 L95.5251522,44.8368048 C95.9636826,40.4584178 99.845787,35.629757 107.065613,35.629757 C115.598457,35.629757 118.768713,40.6300657 118.768713,46.2577657 L118.768713,60.0121135 C118.768713,61.4895396 118.933765,63.4815874 119.096243,64.4468048 L112.425787,64.4468048 C112.263309,63.7068048 112.152309,62.1732352 112.152309,61.0926744 C110.785239,63.3099396 108.213578,65.2431091 104.223048,65.2431091 C98.4812913,65.2431091 94.9809304,61.2080178 94.9809304,56.8296309 C94.9809304,51.8293222 98.5353435,49.0435439 103.02103,48.362583 Z M77.649487,36.4823657 L83.4456174,54.499757 L88.423887,36.4823657 L95.6387261,36.4823657 L87.2192957,64.4468048 L79.9452565,64.4468048 L73.6565435,45.3488526 L67.4760957,64.4468048 L60.0936304,64.4468048 L51.5093087,36.4823657 L59.1650913,36.4823657 L64.140787,54.4434526 L69.9937043,36.4823657 L77.649487,36.4823657 Z M34.4513435,50.4056265 L24.8789609,36.4823657 L33.5200696,36.4823657 C34.4513435,38.0159352 37.9489696,43.2441961 38.8802435,44.7805004 L44.1836304,36.4823657 L52.4404217,36.4823657 L43.0356652,50.1804091 L52.7679522,64.4468048 L44.2376826,64.4468048 L38.6041913,55.8644135 C37.6214391,57.397983 34.012813,62.9132352 33.0815391,64.4468048 L24.8789609,64.4468048 L34.4513435,50.4056265 Z M16.6787957,53.1349396 L16.6787957,51.8856265 L10.6119057,52.8508439 C8.7521087,53.1349396 7.2740713,54.2127657 7.2740713,56.3738874 C7.2740713,58.0228004 8.42194,59.6154091 10.7718261,59.6154091 C13.8362304,59.6154091 16.6787957,58.0816787 16.6787957,53.1349396 Z M8.03760652,48.362583 L14.6564883,47.3383265 C16.1886261,47.1103744 16.6787957,46.31407 16.6787957,45.3488526 C16.6787957,43.3595396 15.2033322,41.7106265 12.1389439,41.7106265 C8.96878391,41.7106265 7.21990652,43.8125483 7.00065739,46.2577657 L0.546845522,44.8368048 C0.985353435,40.4584178 4.86744652,35.629757 12.087353,35.629757 C20.615113,35.629757 23.7877826,40.6300657 23.7877826,46.2577657 L23.7877826,60.0121135 C23.7877826,61.4895396 23.9502609,63.4815874 24.117887,64.4468048 L17.4448565,64.4468048 C17.2798043,63.7068048 17.1715391,62.1732352 17.1715391,61.0926744 C15.804357,63.3099396 13.2326317,65.2431091 9.24221391,65.2431091 C3.5003287,65.2431091 0,61.2080178 0,56.8296309 C0,51.8293222 3.55449348,49.0435439 8.03760652,48.362583 Z" id="Shape" fill="#FFFFFF"></path>
                    <path d="M213.486783,42.3203222 L159.334065,17.1088439 L159.334065,26.2359396 L202.443087,46.3047396 L213.486783,42.3203222 Z M165.76,33.7852265 L165.76,42.9097483 L175.606826,47.4707222 L159.765357,63.8845657 L170.269174,63.8845657 L189.066783,44.6291222 L165.76,33.7852265 Z M213.470696,24.0790004 L213.49,37.7747917 L151.990048,9.12709131 L151.990048,0 L205.800435,25.0802526 L205.800435,11.3766913 L219.913522,17.9479396 L219.913522,27.080183 L213.470696,24.0790004 Z" id="Shape" fill="#E82C2A"></path>
                </g>
            </g>
        </g>
    </g>
</svg>
