<?xml version="1.0" encoding="utf-8"?>
<!-- Generator: Adobe Illustrator 24.0.0, SVG Export Plug-In . SVG Version: 6.00 Build 0)  -->
<svg version="1.1" id="Calque_1" xmlns="http://www.w3.org/2000/svg" xmlns:xlink="http://www.w3.org/1999/xlink" x="0px" y="0px"
	 viewBox="0 0 18 18" style="enable-background:new 0 0 18 18;" xml:space="preserve">
<style type="text/css">
	.st0{fill:#FFFFFF;}
</style>
<g>
	<path class="st0" d="M17.1,8.6c-0.1,0-0.1,0.1-0.2,0.1v-7c0-1-0.7-1.7-1.6-1.7H2.7C1.8,0,1.1,0.8,1.1,1.7v7C1,8.7,0.9,8.6,0.9,8.6
		C0.3,8.2,0,8.7,0.3,9.2C0.9,10,2.2,11,4,11.7c-2,6.7,4.8,7.8,4.7,4.4c0,0.1,0-2,0-3.4c0.2,0,0.3,0.1,0.5,0.1c0,1.4,0,3.3,0,3.3
		c-0.1,3.5,6.7,2.4,4.7-4.4c1.9-0.8,3.1-1.7,3.7-2.5C18,8.7,17.7,8.2,17.1,8.6z M10.4,10.3c-0.8,0-1.1,0.3-1.2,0.9
		C9,11,8.8,10.8,8.6,10.6c0,0-0.1-0.1-0.1-0.1c-0.2-0.2-0.5-0.3-1-0.3c-1.1,0-3.2,0.3-5.5-1V2.5c0-1.2,0.3-1.6,1.4-1.6h11.2
		c1.1,0,1.4,0.5,1.4,1.6v6.7C13.6,10.6,11.6,10.3,10.4,10.3z"/>
	<path class="st0" d="M11.6,5.4c-1.2,0-2.2,0.9-2.2,2s1,2,2.2,2c1.2,0,2.2-0.9,2.2-2S12.8,5.4,11.6,5.4z"/>
	<ellipse class="st0" cx="6.6" cy="7.4" rx="2.2" ry="2"/>
</g>
</svg>
